<?xml version="1.0" encoding="utf-8"?>
<!-- Generator: Adobe Illustrator 25.0.1, SVG Export Plug-In . SVG Version: 6.00 Build 0)  -->
<svg version="1.1" id="Calque_1" xmlns="http://www.w3.org/2000/svg" xmlns:xlink="http://www.w3.org/1999/xlink" x="0px" y="0px"
	 viewBox="0 0 16 16" style="enable-background:new 0 0 16 16;" xml:space="preserve">
<style type="text/css">
	.st0{fill-rule:evenodd;clip-rule:evenodd;fill:#F26522;fill-opacity:0.7;}
	.st1{fill-rule:evenodd;clip-rule:evenodd;fill:#9AA7B0;fill-opacity:0.8;}
	.st2{display:none;fill-rule:evenodd;clip-rule:evenodd;fill:#231F20;fill-opacity:0.7;}
	.st3{opacity:0.7;}
	.st4{fill:#231F20;}
	.st5{fill-rule:evenodd;clip-rule:evenodd;fill:none;}
</style>
<g>
	<polygon class="st0" points="1,16 16,16 16,9 1,9 	"/>
	<polygon class="st1" points="7,1 3,5 7,5 	"/>
	<polygon class="st1" points="8,1 8,6 3,6 3,8 13,8 13,1 	"/>
	<path class="st2" d="M2.4,13.6C2.6,13.8,2.8,14,3.3,14C3.8,14,4,13.6,4,13.3V10h1v3.6C5,14.3,4.3,15,3.5,15c-0.8,0-1.3-0.2-1.7-0.7
		L2.4,13.6z"/>
	<path class="st2" d="M11.9,12.5c0.7,0,1.1-0.1,1.1-0.8S12.6,11,11.9,11H11v1.5H11.9z M10,10h2c1.2,0,2,0.6,2,1.6
		c0,1.6-1,1.9-2.1,1.9H11V15h-1V10z"/>
	<path class="st2" d="M7,11.5C7,11.1,7.3,11,7.8,11c0,0,0.4,0,1.2,0v-1c-0.7,0-1.1,0-1.1,0C6.8,10,6,10.5,6,11.4
		c0,0.9,0.4,1.2,1.5,1.5c0.8,0.2,1,0.3,1,0.6c0,0.3-0.4,0.5-1,0.5c0,0-0.4,0-1.2,0v1c0.8,0,1.2,0,1.2,0c2,0,2-1,2-1.5
		c0-0.6-0.5-1.1-1.3-1.4S7,11.9,7,11.5z"/>
	<g>
		<g class="st3">
			<path class="st4" d="M3.6,10.9H2.2v-1h3.9v1H4.7V15H3.6V10.9z"/>
			<path class="st4" d="M6.9,9.9h1.1V15H6.9V9.9z"/>
			<path class="st4" d="M9,12.5c0-1.7,1.1-2.6,2.5-2.6c0.7,0,1.3,0.3,1.6,0.7l-0.6,0.7c-0.2-0.2-0.5-0.4-1-0.4
				c-0.8,0-1.3,0.6-1.3,1.6c0,1,0.5,1.6,1.4,1.6c0.2,0,0.4-0.1,0.5-0.2v-0.9h-0.8v-0.9h1.9v2.3c-0.3,0.3-1,0.6-1.7,0.6
				C10.1,15.1,9,14.2,9,12.5z"/>
		</g>
	</g>
</g>
<rect x="1.7" y="9.7" class="st5" width="13.2" height="5.6"/>
</svg>
